<svg id="Layer_1" data-name="Layer 1" xmlns="http://www.w3.org/2000/svg" viewBox="0 0 106.78 122.88"><defs><style>.cls-1{fill:#212121;}.cls-2{fill:#f4bb2c;fill-rule:evenodd;}.cls-3{fill:#fff;}</style></defs><title>curiosity</title><path class="cls-1" d="M25.2,91.94l-.93,2.39a.79.79,0,0,1-.76.5q-2.27-.14-4.44-.09-1.79,0-3.54.24l.07.51c.08.61.18,1.25.3,1.94s.25,1.35.4,2v0a2.65,2.65,0,0,1,0,.93,2.93,2.93,0,0,1-.32.87A17.59,17.59,0,0,0,14.9,104a10.34,10.34,0,0,0-.46,2.28h0a4.52,4.52,0,0,0,.17,1.66v0a3,3,0,0,0,.7,1.16,4.68,4.68,0,0,0,1.42.94,9.68,9.68,0,0,0,2.2.65,20.85,20.85,0,0,0,4.46.29,39,39,0,0,0,5.52-.62c.71-.13,1.43-.27,2.16-.43s1.47-.32,2.22-.51,1.43-.37,2.11-.56,1.41-.41,2.09-.63c1.14-.37,2.27-.76,3.35-1.2s2-.85,3-1.33,1.7-.89,2.47-1.36a20.13,20.13,0,0,0,2.14-1.5,2.59,2.59,0,0,1,4.19,2.31,2.6,2.6,0,0,1-1,1.74,26.28,26.28,0,0,1-2.62,1.82c-.92.57-1.9,1.11-2.92,1.62s-2,.94-3,1.35c-.86.35-1.76.69-2.69,1,0,.43,0,.86,0,1.28q0,.93-.12,1.86c-.09.87-.21,1.73-.37,2.58s-.33,1.65-.54,2.44l0,.12a2.64,2.64,0,0,1-1.19,1.5,2.6,2.6,0,0,1-1.9.28l-.13,0a2.57,2.57,0,0,1-1.51-1.18,2.62,2.62,0,0,1-.26-2c.19-.71.35-1.42.48-2.12s.23-1.4.3-2.1c0-.34.06-.69.08-1.05v0l-.71.18c-.81.2-1.61.39-2.4.55h0c-.77.16-1.54.31-2.29.44a44.11,44.11,0,0,1-6.43.7,25,25,0,0,1-5.4-.37,14.13,14.13,0,0,1-3.61-1.14,9.5,9.5,0,0,1-2.74-1.92,8.09,8.09,0,0,1-1.91-3.05A9.66,9.66,0,0,1,9.29,106a14.78,14.78,0,0,1,.57-3.12,22.1,22.1,0,0,1,1.21-3.15c-.11-.53-.22-1.08-.31-1.63A70.86,70.86,0,0,1,10,90.48c-.15-2.63-.22-5.33-.25-7.43v0c-1.19,0-2.41-.06-3.6-.13C1.2,82.72-1,78,.44,73.63a11.48,11.48,0,0,1,1.24-2.55l4.53-9.25a24.93,24.93,0,0,0,1.87-4.45,8.6,8.6,0,0,0,.16-2.74C8.05,49.33,8.28,44,10.39,39l-7.58-3.3a2.59,2.59,0,0,1-1.34-3.4,3.43,3.43,0,0,1,.28-.49C11.09,19.1,21,10.69,30.89,5.73,42.11.09,53.28-1.1,63.45.91A50.36,50.36,0,0,1,78.87,6.74a56,56,0,0,1,13.27,10.7,57.44,57.44,0,0,1,9.39,13.9A53.48,53.48,0,0,1,106.31,47a46.13,46.13,0,0,1-5,28.44C97,83.56,89.88,91.08,79.44,97.21l-.21.11c0,1.13,0,2.26.12,3.38s.2,2.55.35,3.81A64.45,64.45,0,0,0,81,111.7a59.11,59.11,0,0,0,2.09,6.73,2.6,2.6,0,0,1-.06,2l0,0a2.6,2.6,0,0,1-1.42,1.3h0a2.58,2.58,0,0,1-3.33-1.51h0A63.44,63.44,0,0,1,76,112.92a67.39,67.39,0,0,1-1.43-7.79,72.73,72.73,0,0,1-.51-8.23,82.23,82.23,0,0,1,.43-8.75v0a2.59,2.59,0,0,1,5.14.56q-.09.93-.18,2l0,.47c8.31-5.39,14-11.78,17.6-18.61A41.07,41.07,0,0,0,101.2,47.7a48.35,48.35,0,0,0-4.32-14.16,52.35,52.35,0,0,0-8.53-12.61,50.63,50.63,0,0,0-12-9.68A45.59,45.59,0,0,0,62.46,6,44.87,44.87,0,0,0,33.7,10.12C25,14.36,16.27,21.52,7.89,32.29l7.16,3.13c.09,0,.18.09.27.15a2.59,2.59,0,0,1,1.13,1.56,2.64,2.64,0,0,1-.29,1.95c-2.72,4.53-3,10.21-2.76,15.36a13,13,0,0,1-.22,4,30,30,0,0,1-2.33,5.66C9.31,67.24,6.59,71.85,5.4,75.15a3.7,3.7,0,0,0-.24,1.18c0,.82.29,1.35,1.14,1.4,1.85,0,4.19.12,6.06.22a2.57,2.57,0,0,1,1.73.77l0,0a2.58,2.58,0,0,1,.73,1.74c0,.78,0,1.63,0,2.47v0c0,1.2,0,2.47.07,3.76,0,1,.07,2,.14,3h1.66a19.46,19.46,0,0,1,8,1.15.77.77,0,0,1,.44,1ZM55,20.25a2.11,2.11,0,0,1,.66-1.5,2.15,2.15,0,0,1,1.51-.59h.15a2.14,2.14,0,0,1,2,2.17h0v.11L59.14,25h0c0,.05,0,.09,0,.14a2.14,2.14,0,0,1-2.17,2h-.14a2.15,2.15,0,0,1-1.38-.66,2.13,2.13,0,0,1-.59-1.5h0a.37.37,0,0,1,0-.11L55,20.25Zm6.54,61.57a7.18,7.18,0,0,1-2.64,2.64,6.87,6.87,0,0,1-3,.93,6.28,6.28,0,0,1-3.12-.61,6.44,6.44,0,0,1-1.84-1.37l10.62-1.59ZM63,70.6l-.34,1.61-.09,1.15L48.69,75.42a16.7,16.7,0,0,0-.39-2.64L63,70.6Zm-.46,5.28v.69l0,.24a10.47,10.47,0,0,1,0,1.37l-.21,1L49.49,81.1l-.23-.52-.5-2v-.6l13.77-2.05ZM31.71,28.28a2.23,2.23,0,0,1-.69-1.5,2.14,2.14,0,0,1,3.6-1.65l3.44,3.2a2.23,2.23,0,0,1,.69,1.5,2.12,2.12,0,0,1-.57,1.53,2.15,2.15,0,0,1-3,.12l-3.43-3.2ZM26.09,51.9a2.15,2.15,0,0,1-2.19-2.08,2.17,2.17,0,0,1,.58-1.54,2.12,2.12,0,0,1,1.5-.67l4.69-.16a2.13,2.13,0,0,1,1.54.58,2.1,2.1,0,0,1,.67,1.5v0h0v.08a2.17,2.17,0,0,1-.58,1.43,2.12,2.12,0,0,1-1.5.67h-.08l-4.63.16Zm58.39-6.65h.07a2.13,2.13,0,0,1,1.48.48,2.17,2.17,0,0,1,.79,1.44v.1a2.21,2.21,0,0,1-.47,1.48,2.14,2.14,0,0,1-1.45.78L80.23,50a2.07,2.07,0,0,1-1.57-.47,2.14,2.14,0,0,1,1.14-3.79c1.55-.17,3.11-.35,4.68-.5ZM76.6,25.66a2.22,2.22,0,0,1,1.61.32h0a2.09,2.09,0,0,1,.91,1.36A2.13,2.13,0,0,1,78.8,29l-2.61,3.9a2.14,2.14,0,0,1-1.37.92,2.18,2.18,0,0,1-1.61-.33,2.14,2.14,0,0,1-.59-3l2.62-3.91h0a2.18,2.18,0,0,1,1.36-.91Z"/><path class="cls-2" d="M65.08,33.49a17.16,17.16,0,0,1,7.23,8.2,18,18,0,0,1,1.37,6.37,18.33,18.33,0,0,1-1.4,7.48C70.63,59.61,66.8,64,64.29,68a1.23,1.23,0,0,0-.43,0L47.63,70.37a21.62,21.62,0,0,0-3.82-7.09,26.23,26.23,0,0,1-4.5-6.42,19.29,19.29,0,0,1-1.94-8.43,19.66,19.66,0,0,1,2.37-9l0-.06a17.13,17.13,0,0,1,8.34-7.29,18.44,18.44,0,0,1,8.68-1.24,20.07,20.07,0,0,1,8.29,2.66Z"/><path class="cls-3" d="M56.74,54.5h-5.1a8.75,8.75,0,0,1,.18-2.67A6,6,0,0,1,52.6,50a4.89,4.89,0,0,1,1.1-1.16,10.72,10.72,0,0,1,1.19-.76q.59-.33,1-.63a1.52,1.52,0,0,0,.61-.75,1.28,1.28,0,0,0,.06-.63,1.32,1.32,0,0,0-.31-.67,1.88,1.88,0,0,0-.78-.53,3.41,3.41,0,0,0-1.34-.22,11,11,0,0,0-1.29.1,13.75,13.75,0,0,0-1.56.3,12.38,12.38,0,0,0-1.6.5,8.24,8.24,0,0,0-1.43.67l-.66-5.91c.37-.21.79-.44,1.26-.68A10.31,10.31,0,0,1,50.41,39a13.22,13.22,0,0,1,1.83-.46,12.14,12.14,0,0,1,2.15-.18,11.8,11.8,0,0,1,3.5.51,8.77,8.77,0,0,1,2.88,1.5,7.15,7.15,0,0,1,2.68,5.78,5.44,5.44,0,0,1-.41,2.3,4.3,4.3,0,0,1-1,1.43,6.16,6.16,0,0,1-1.41.93c-.52.25-1,.53-1.53.82a6.77,6.77,0,0,0-1.37,1.09,4.1,4.1,0,0,0-.95,1.74Zm.75,4a3.06,3.06,0,0,1-.26,1.24,3.31,3.31,0,0,1-.69,1,3.16,3.16,0,0,1-1,.68,3.07,3.07,0,0,1-1.21.24,3.07,3.07,0,0,1-2.24-.92,3.28,3.28,0,0,1-.68-1,3.18,3.18,0,0,1,0-2.47,3.18,3.18,0,0,1,1.68-1.7,2.84,2.84,0,0,1,1.24-.26,2.77,2.77,0,0,1,1.21.26,3.24,3.24,0,0,1,1.69,1.7,3.05,3.05,0,0,1,.26,1.23Z"/></svg>