<svg width="150" height="150" viewBox="0 0 150 150" fill="none" xmlns="http://www.w3.org/2000/svg">
<rect width="150" height="150" fill="black"/>
<rect x="41.5" y="28.5" width="66" height="94" rx="9.5" fill="black" stroke="#066377" stroke-width="3"/>
<rect x="27" y="99" width="35" height="39" fill="black"/>
<path d="M38.952 112.13C38.2327 112.13 37.5437 111.987 36.885 111.701C36.2263 111.406 35.6457 110.986 35.143 110.44L35.806 109.751C36.274 110.254 36.7723 110.631 37.301 110.882C37.8383 111.133 38.4017 111.259 38.991 111.259C39.4677 111.259 39.888 111.185 40.252 111.038C40.6247 110.882 40.915 110.67 41.123 110.401C41.331 110.124 41.435 109.812 41.435 109.465C41.435 108.997 41.2703 108.637 40.941 108.386C40.6203 108.135 40.0873 107.948 39.342 107.827L38.029 107.619C37.1537 107.472 36.508 107.212 36.092 106.839C35.676 106.466 35.468 105.959 35.468 105.318C35.468 104.815 35.6023 104.373 35.871 103.992C36.1397 103.611 36.5123 103.316 36.989 103.108C37.4743 102.891 38.0333 102.783 38.666 102.783C39.3073 102.783 39.9357 102.887 40.551 103.095C41.175 103.303 41.7427 103.602 42.254 103.992L41.682 104.772C40.6853 104.018 39.667 103.641 38.627 103.641C38.1937 103.641 37.8123 103.71 37.483 103.849C37.1537 103.979 36.898 104.165 36.716 104.408C36.534 104.642 36.443 104.919 36.443 105.24C36.443 105.665 36.586 105.99 36.872 106.215C37.158 106.44 37.6303 106.605 38.289 106.709L39.589 106.917C40.5857 107.082 41.3093 107.363 41.76 107.762C42.2107 108.152 42.436 108.702 42.436 109.413C42.436 109.942 42.2887 110.414 41.994 110.83C41.6993 111.237 41.2877 111.558 40.759 111.792C40.239 112.017 39.6367 112.13 38.952 112.13ZM43.7959 112V102.9H44.7969V111.103H50.2179V112H43.7959ZM52.6426 111.09H54.6966C55.2253 111.09 55.715 110.999 56.1656 110.817C56.6163 110.635 57.0106 110.379 57.3486 110.05C57.6866 109.721 57.9466 109.335 58.1286 108.893C58.3193 108.451 58.4146 107.97 58.4146 107.45C58.4146 106.93 58.3193 106.449 58.1286 106.007C57.9466 105.565 57.6866 105.179 57.3486 104.85C57.0106 104.521 56.6163 104.265 56.1656 104.083C55.715 103.901 55.2253 103.81 54.6966 103.81H52.6426V111.09ZM51.6416 112V102.9H54.6446C55.338 102.9 55.975 103.013 56.5556 103.238C57.1363 103.463 57.639 103.78 58.0636 104.187C58.497 104.594 58.8306 105.075 59.0646 105.63C59.3073 106.185 59.4286 106.791 59.4286 107.45C59.4286 108.109 59.3116 108.715 59.0776 109.27C58.8436 109.825 58.51 110.306 58.0766 110.713C57.652 111.12 57.145 111.437 56.5556 111.662C55.975 111.887 55.338 112 54.6446 112H51.6416Z" fill="#066377"/>
<path d="M33.052 125L36.822 115.9H38.031L41.775 125H40.683L39.539 122.14H35.249L34.092 125H33.052ZM35.6 121.282H39.188L37.394 116.823L35.6 121.282ZM45.9657 125.13C45.2463 125.13 44.5573 124.987 43.8987 124.701C43.24 124.406 42.6593 123.986 42.1567 123.44L42.8197 122.751C43.2877 123.254 43.786 123.631 44.3147 123.882C44.852 124.133 45.4153 124.259 46.0047 124.259C46.4813 124.259 46.9017 124.185 47.2657 124.038C47.6383 123.882 47.9287 123.67 48.1367 123.401C48.3447 123.124 48.4487 122.812 48.4487 122.465C48.4487 121.997 48.284 121.637 47.9547 121.386C47.634 121.135 47.101 120.948 46.3557 120.827L45.0427 120.619C44.1673 120.472 43.5217 120.212 43.1057 119.839C42.6897 119.466 42.4817 118.959 42.4817 118.318C42.4817 117.815 42.616 117.373 42.8847 116.992C43.1533 116.611 43.526 116.316 44.0027 116.108C44.488 115.891 45.047 115.783 45.6797 115.783C46.321 115.783 46.9493 115.887 47.5647 116.095C48.1887 116.303 48.7563 116.602 49.2677 116.992L48.6957 117.772C47.699 117.018 46.6807 116.641 45.6407 116.641C45.2073 116.641 44.826 116.71 44.4967 116.849C44.1673 116.979 43.9117 117.165 43.7297 117.408C43.5477 117.642 43.4567 117.919 43.4567 118.24C43.4567 118.665 43.5997 118.99 43.8857 119.215C44.1717 119.44 44.644 119.605 45.3027 119.709L46.6027 119.917C47.5993 120.082 48.323 120.363 48.7737 120.762C49.2243 121.152 49.4497 121.702 49.4497 122.413C49.4497 122.942 49.3023 123.414 49.0077 123.83C48.713 124.237 48.3013 124.558 47.7727 124.792C47.2527 125.017 46.6503 125.13 45.9657 125.13ZM50.8096 125V115.9H52.2136L55.3206 122.361L58.4146 115.9H59.8186V125H58.8696V117.044L55.3076 124.35L51.7456 117.057V125H50.8096Z" fill="#066377"/>
<rect x="92" y="20" width="29" height="24" rx="7" fill="#066377"/>
<rect x="87" y="7" width="42" height="20" fill="black"/>
<rect x="109" y="25" width="31" height="30" fill="black"/>
<path d="M114.7 22.0592L109.661 43.8116L92.7952 26.3886L114.7 22.0592Z" fill="black"/>
</svg>
