<svg width="150" height="150" viewBox="0 0 150 150" fill="none" xmlns="http://www.w3.org/2000/svg">
<rect width="150" height="150" fill="black"/>
<rect x="41.5" y="28.5" width="66" height="94" rx="9.5" fill="black" stroke="#066377" stroke-width="3"/>
<rect x="27" y="99" width="35" height="39" fill="black"/>
<path d="M38.952 112.13C38.2327 112.13 37.5437 111.987 36.885 111.701C36.2263 111.406 35.6457 110.986 35.143 110.44L35.806 109.751C36.274 110.254 36.7723 110.631 37.301 110.882C37.8383 111.133 38.4017 111.259 38.991 111.259C39.4677 111.259 39.888 111.185 40.252 111.038C40.6247 110.882 40.915 110.67 41.123 110.401C41.331 110.124 41.435 109.812 41.435 109.465C41.435 108.997 41.2703 108.637 40.941 108.386C40.6203 108.135 40.0873 107.948 39.342 107.827L38.029 107.619C37.1537 107.472 36.508 107.212 36.092 106.839C35.676 106.466 35.468 105.959 35.468 105.318C35.468 104.815 35.6023 104.373 35.871 103.992C36.1397 103.611 36.5123 103.316 36.989 103.108C37.4743 102.891 38.0333 102.783 38.666 102.783C39.3073 102.783 39.9357 102.887 40.551 103.095C41.175 103.303 41.7427 103.602 42.254 103.992L41.682 104.772C40.6853 104.018 39.667 103.641 38.627 103.641C38.1937 103.641 37.8123 103.71 37.483 103.849C37.1537 103.979 36.898 104.165 36.716 104.408C36.534 104.642 36.443 104.919 36.443 105.24C36.443 105.665 36.586 105.99 36.872 106.215C37.158 106.44 37.6303 106.605 38.289 106.709L39.589 106.917C40.5857 107.082 41.3093 107.363 41.76 107.762C42.2107 108.152 42.436 108.702 42.436 109.413C42.436 109.942 42.2887 110.414 41.994 110.83C41.6993 111.237 41.2877 111.558 40.759 111.792C40.239 112.017 39.6367 112.13 38.952 112.13ZM43.7959 112V102.9H44.7969V111.103H50.2179V112H43.7959ZM52.6426 111.09H54.6966C55.2253 111.09 55.715 110.999 56.1656 110.817C56.6163 110.635 57.0106 110.379 57.3486 110.05C57.6866 109.721 57.9466 109.335 58.1286 108.893C58.3193 108.451 58.4146 107.97 58.4146 107.45C58.4146 106.93 58.3193 106.449 58.1286 106.007C57.9466 105.565 57.6866 105.179 57.3486 104.85C57.0106 104.521 56.6163 104.265 56.1656 104.083C55.715 103.901 55.2253 103.81 54.6966 103.81H52.6426V111.09ZM51.6416 112V102.9H54.6446C55.338 102.9 55.975 103.013 56.5556 103.238C57.1363 103.463 57.639 103.78 58.0636 104.187C58.497 104.594 58.8306 105.075 59.0646 105.63C59.3073 106.185 59.4286 106.791 59.4286 107.45C59.4286 108.109 59.3116 108.715 59.0776 109.27C58.8436 109.825 58.51 110.306 58.0766 110.713C57.652 111.12 57.145 111.437 56.5556 111.662C55.975 111.887 55.338 112 54.6446 112H51.6416Z" fill="#066377"/>
<path d="M36.001 125V115.9H39.953C40.551 115.9 41.0667 116.008 41.5 116.225C41.942 116.442 42.2843 116.749 42.527 117.148C42.7697 117.538 42.891 117.997 42.891 118.526C42.891 119.055 42.7697 119.518 42.527 119.917C42.2843 120.307 41.942 120.615 41.5 120.84C41.058 121.057 40.5423 121.165 39.953 121.165H37.002V125H36.001ZM37.002 120.294H39.875C40.4903 120.294 40.98 120.138 41.344 119.826C41.708 119.505 41.89 119.076 41.89 118.539C41.89 118.002 41.708 117.577 41.344 117.265C40.98 116.953 40.4903 116.797 39.875 116.797H37.002V120.294ZM44.418 125V115.9H48.318C48.916 115.9 49.436 116.008 49.878 116.225C50.32 116.442 50.6623 116.745 50.905 117.135C51.1563 117.525 51.282 117.984 51.282 118.513C51.282 119.111 51.1043 119.627 50.749 120.06C50.4023 120.485 49.9343 120.784 49.345 120.957L51.386 125H50.281L48.331 121.087H45.419V125H44.418ZM45.419 120.242H48.253C48.8683 120.242 49.358 120.086 49.722 119.774C50.0947 119.462 50.281 119.042 50.281 118.513C50.281 117.993 50.0947 117.577 49.722 117.265C49.358 116.953 48.8683 116.797 48.253 116.797H45.419V120.242ZM54.9758 125V116.797H51.6868V115.9H59.2658V116.797H55.9768V125H54.9758Z" fill="#066377"/>
<rect x="92" y="20" width="29" height="24" rx="7" fill="#066377"/>
<rect x="87" y="7" width="42" height="20" fill="black"/>
<rect x="109" y="25" width="31" height="30" fill="black"/>
<path d="M114.7 22.0592L109.661 43.8116L92.7952 26.3886L114.7 22.0592Z" fill="black"/>
</svg>
