<svg width="150" height="150" viewBox="0 0 150 150" fill="none" xmlns="http://www.w3.org/2000/svg">
<rect width="150" height="150" fill="black"/>
<rect x="41.5" y="28.5" width="66" height="94" rx="9.5" fill="black" stroke="#066377" stroke-width="3"/>
<rect x="27" y="99" width="35" height="39" fill="black"/>
<path d="M33.496 118.176C32.6853 118.176 31.928 118.027 31.224 117.728C30.5307 117.429 29.9173 117.019 29.384 116.496C28.8613 115.963 28.4507 115.349 28.152 114.656C27.8533 113.952 27.704 113.2 27.704 112.4C27.704 111.6 27.848 110.853 28.136 110.16C28.4347 109.456 28.8453 108.843 29.368 108.32C29.9013 107.787 30.5147 107.371 31.208 107.072C31.912 106.773 32.6693 106.624 33.48 106.624C34.344 106.624 35.16 106.784 35.928 107.104C36.696 107.424 37.352 107.877 37.896 108.464L37.064 109.312C36.6373 108.821 36.104 108.443 35.464 108.176C34.8347 107.899 34.1733 107.76 33.48 107.76C32.84 107.76 32.2427 107.877 31.688 108.112C31.144 108.347 30.664 108.677 30.248 109.104C29.8427 109.52 29.5227 110.011 29.288 110.576C29.064 111.131 28.952 111.739 28.952 112.4C28.952 113.051 29.064 113.659 29.288 114.224C29.5227 114.789 29.8427 115.285 30.248 115.712C30.664 116.128 31.144 116.453 31.688 116.688C32.2427 116.923 32.84 117.04 33.48 117.04C34.2373 117.04 34.92 116.875 35.528 116.544C36.1467 116.213 36.6427 115.76 37.016 115.184C37.4 114.608 37.624 113.957 37.688 113.232H33.672V112.144H38.936V112.64C38.936 113.419 38.7973 114.144 38.52 114.816C38.2427 115.488 37.8587 116.075 37.368 116.576C36.8773 117.077 36.3013 117.472 35.64 117.76C34.9787 118.037 34.264 118.176 33.496 118.176ZM40.8414 118V106.8H42.0734V116.896H48.7454V118H40.8414ZM50.4976 118V106.8H55.0416C55.767 106.8 56.391 106.917 56.9136 107.152C57.447 107.387 57.8576 107.723 58.1456 108.16C58.4336 108.587 58.5776 109.093 58.5776 109.68C58.5776 110.256 58.423 110.757 58.1136 111.184C57.815 111.611 57.399 111.936 56.8656 112.16C57.5376 112.363 58.0656 112.699 58.4496 113.168C58.8443 113.637 59.0416 114.197 59.0416 114.848C59.0416 115.488 58.8816 116.048 58.5616 116.528C58.2523 116.997 57.8096 117.36 57.2336 117.616C56.6683 117.872 56.0016 118 55.2336 118H50.4976ZM51.7296 111.68H54.9776C55.703 111.68 56.279 111.509 56.7056 111.168C57.143 110.827 57.3616 110.363 57.3616 109.776C57.3616 109.189 57.143 108.725 56.7056 108.384C56.279 108.043 55.703 107.872 54.9776 107.872H51.7296V111.68ZM51.7296 116.928H55.1376C55.9483 116.928 56.5936 116.736 57.0736 116.352C57.5536 115.968 57.7936 115.456 57.7936 114.816C57.7936 114.176 57.5536 113.664 57.0736 113.28C56.5936 112.896 55.9483 112.704 55.1376 112.704H51.7296V116.928Z" fill="#066377"/>
<rect x="92" y="20" width="29" height="24" rx="7" fill="#066377"/>
<rect x="87" y="7" width="42" height="20" fill="black"/>
<rect x="109" y="25" width="31" height="30" fill="black"/>
<path d="M114.7 22.0592L109.661 43.8116L92.7952 26.3886L114.7 22.0592Z" fill="black"/>
</svg>
